<?xml version="1.0" standalone="no"?>
<!DOCTYPE svg PUBLIC "-//W3C//DTD SVG 1.1//EN" "http://www.w3.org/Graphics/SVG/1.1/DTD/svg11.dtd">
<svg version="1.1" width="1200" height="470" onload="init(evt)" viewBox="0 0 1200 470" xmlns="http://www.w3.org/2000/svg" xmlns:xlink="http://www.w3.org/1999/xlink">
<!-- Flame graph stack visualization. See https://github.com/brendangregg/FlameGraph for latest version, and http://www.brendangregg.com/flamegraphs.html for examples. -->
<!-- NOTES:  -->
<defs>
	<linearGradient id="background" y1="0" y2="1" x1="0" x2="0" >
		<stop stop-color="#eeeeee" offset="5%" />
		<stop stop-color="#eeeeb0" offset="95%" />
	</linearGradient>
</defs>
<style type="text/css">
	text { font-family:Verdana; font-size:12px; fill:rgb(0,0,0); }
	#search, #ignorecase { opacity:0.1; cursor:pointer; }
	#search:hover, #search.show, #ignorecase:hover, #ignorecase.show { opacity:1; }
	#subtitle { text-anchor:middle; font-color:rgb(160,160,160); }
	#title { text-anchor:middle; font-size:17px}
	#unzoom { cursor:pointer; }
	#frames > *:hover { stroke:black; stroke-width:0.5; cursor:pointer; }
	.hide { display:none; }
	.parent { opacity:0.5; }
</style>
<script type="text/ecmascript">
<![CDATA[
	"use strict";
	var details, searchbtn, unzoombtn, matchedtxt, svg, searching, currentSearchTerm, ignorecase, ignorecaseBtn;
	function init(evt) {
		details = document.getElementById("details").firstChild;
		searchbtn = document.getElementById("search");
		ignorecaseBtn = document.getElementById("ignorecase");
		unzoombtn = document.getElementById("unzoom");
		matchedtxt = document.getElementById("matched");
		svg = document.getElementsByTagName("svg")[0];
		searching = 0;
		currentSearchTerm = null;

		// use GET parameters to restore a flamegraphs state.
		var params = get_params();
		if (params.x && params.y)
			zoom(find_group(document.querySelector('[x="' + params.x + '"][y="' + params.y + '"]')));
                if (params.s) search(params.s);
	}

	// event listeners
	window.addEventListener("click", function(e) {
		var target = find_group(e.target);
		if (target) {
			if (target.nodeName == "a") {
				if (e.ctrlKey === false) return;
				e.preventDefault();
			}
			if (target.classList.contains("parent")) unzoom(true);
			zoom(target);
			if (!document.querySelector('.parent')) {
				// we have basically done a clearzoom so clear the url
				var params = get_params();
				if (params.x) delete params.x;
				if (params.y) delete params.y;
				history.replaceState(null, null, parse_params(params));
				unzoombtn.classList.add("hide");
				return;
			}

			// set parameters for zoom state
			var el = target.querySelector("rect");
			if (el && el.attributes && el.attributes.y && el.attributes._orig_x) {
				var params = get_params()
				params.x = el.attributes._orig_x.value;
				params.y = el.attributes.y.value;
				history.replaceState(null, null, parse_params(params));
			}
		}
		else if (e.target.id == "unzoom") clearzoom();
		else if (e.target.id == "search") search_prompt();
		else if (e.target.id == "ignorecase") toggle_ignorecase();
	}, false)

	// mouse-over for info
	// show
	window.addEventListener("mouseover", function(e) {
		var target = find_group(e.target);
		if (target) details.nodeValue = "Function: " + g_to_text(target);
	}, false)

	// clear
	window.addEventListener("mouseout", function(e) {
		var target = find_group(e.target);
		if (target) details.nodeValue = ' ';
	}, false)

	// ctrl-F for search
	// ctrl-I to toggle case-sensitive search
	window.addEventListener("keydown",function (e) {
		if (e.keyCode === 114 || (e.ctrlKey && e.keyCode === 70)) {
			e.preventDefault();
			search_prompt();
		}
		else if (e.ctrlKey && e.keyCode === 73) {
			e.preventDefault();
			toggle_ignorecase();
		}
	}, false)

	// functions
	function get_params() {
		var params = {};
		var paramsarr = window.location.search.substr(1).split('&');
		for (var i = 0; i < paramsarr.length; ++i) {
			var tmp = paramsarr[i].split("=");
			if (!tmp[0] || !tmp[1]) continue;
			params[tmp[0]]  = decodeURIComponent(tmp[1]);
		}
		return params;
	}
	function parse_params(params) {
		var uri = "?";
		for (var key in params) {
			uri += key + '=' + encodeURIComponent(params[key]) + '&';
		}
		if (uri.slice(-1) == "&")
			uri = uri.substring(0, uri.length - 1);
		if (uri == '?')
			uri = window.location.href.split('?')[0];
		return uri;
	}
	function find_child(node, selector) {
		var children = node.querySelectorAll(selector);
		if (children.length) return children[0];
	}
	function find_group(node) {
		var parent = node.parentElement;
		if (!parent) return;
		if (parent.id == "frames") return node;
		return find_group(parent);
	}
	function orig_save(e, attr, val) {
		if (e.attributes["_orig_" + attr] != undefined) return;
		if (e.attributes[attr] == undefined) return;
		if (val == undefined) val = e.attributes[attr].value;
		e.setAttribute("_orig_" + attr, val);
	}
	function orig_load(e, attr) {
		if (e.attributes["_orig_"+attr] == undefined) return;
		e.attributes[attr].value = e.attributes["_orig_" + attr].value;
		e.removeAttribute("_orig_"+attr);
	}
	function g_to_text(e) {
		var text = find_child(e, "title").firstChild.nodeValue;
		return (text)
	}
	function g_to_func(e) {
		var func = g_to_text(e);
		// if there's any manipulation we want to do to the function
		// name before it's searched, do it here before returning.
		return (func);
	}
	function update_text(e) {
		var r = find_child(e, "rect");
		var t = find_child(e, "text");
		var w = parseFloat(r.attributes.width.value) -3;
		var txt = find_child(e, "title").textContent.replace(/\([^(]*\)$/,"");
		t.attributes.x.value = parseFloat(r.attributes.x.value) + 3;

		// Smaller than this size won't fit anything
		if (w < 2 * 12 * 0.59) {
			t.textContent = "";
			return;
		}

		t.textContent = txt;
		var sl = t.getSubStringLength(0, txt.length);
		// check if only whitespace or if we can fit the entire string into width w
		if (/^ *$/.test(txt) || sl < w)
			return;

		// this isn't perfect, but gives a good starting point
		// and avoids calling getSubStringLength too often
		var start = Math.floor((w/sl) * txt.length);
		for (var x = start; x > 0; x = x-2) {
			if (t.getSubStringLength(0, x + 2) <= w) {
				t.textContent = txt.substring(0, x) + "..";
				return;
			}
		}
		t.textContent = "";
	}

	// zoom
	function zoom_reset(e) {
		if (e.attributes != undefined) {
			orig_load(e, "x");
			orig_load(e, "width");
		}
		if (e.childNodes == undefined) return;
		for (var i = 0, c = e.childNodes; i < c.length; i++) {
			zoom_reset(c[i]);
		}
	}
	function zoom_child(e, x, ratio) {
		if (e.attributes != undefined) {
			if (e.attributes.x != undefined) {
				orig_save(e, "x");
				e.attributes.x.value = (parseFloat(e.attributes.x.value) - x - 10) * ratio + 10;
				if (e.tagName == "text")
					e.attributes.x.value = find_child(e.parentNode, "rect[x]").attributes.x.value + 3;
			}
			if (e.attributes.width != undefined) {
				orig_save(e, "width");
				e.attributes.width.value = parseFloat(e.attributes.width.value) * ratio;
			}
		}

		if (e.childNodes == undefined) return;
		for (var i = 0, c = e.childNodes; i < c.length; i++) {
			zoom_child(c[i], x - 10, ratio);
		}
	}
	function zoom_parent(e) {
		if (e.attributes) {
			if (e.attributes.x != undefined) {
				orig_save(e, "x");
				e.attributes.x.value = 10;
			}
			if (e.attributes.width != undefined) {
				orig_save(e, "width");
				e.attributes.width.value = parseInt(svg.width.baseVal.value) - (10 * 2);
			}
		}
		if (e.childNodes == undefined) return;
		for (var i = 0, c = e.childNodes; i < c.length; i++) {
			zoom_parent(c[i]);
		}
	}
	function zoom(node) {
		var attr = find_child(node, "rect").attributes;
		var width = parseFloat(attr.width.value);
		var xmin = parseFloat(attr.x.value);
		var xmax = parseFloat(xmin + width);
		var ymin = parseFloat(attr.y.value);
		var ratio = (svg.width.baseVal.value - 2 * 10) / width;

		// XXX: Workaround for JavaScript float issues (fix me)
		var fudge = 0.0001;

		unzoombtn.classList.remove("hide");

		var el = document.getElementById("frames").children;
		for (var i = 0; i < el.length; i++) {
			var e = el[i];
			var a = find_child(e, "rect").attributes;
			var ex = parseFloat(a.x.value);
			var ew = parseFloat(a.width.value);
			var upstack;
			// Is it an ancestor
			if (0 == 0) {
				upstack = parseFloat(a.y.value) > ymin;
			} else {
				upstack = parseFloat(a.y.value) < ymin;
			}
			if (upstack) {
				// Direct ancestor
				if (ex <= xmin && (ex+ew+fudge) >= xmax) {
					e.classList.add("parent");
					zoom_parent(e);
					update_text(e);
				}
				// not in current path
				else
					e.classList.add("hide");
			}
			// Children maybe
			else {
				// no common path
				if (ex < xmin || ex + fudge >= xmax) {
					e.classList.add("hide");
				}
				else {
					zoom_child(e, xmin, ratio);
					update_text(e);
				}
			}
		}
		search();
	}
	function unzoom(dont_update_text) {
		unzoombtn.classList.add("hide");
		var el = document.getElementById("frames").children;
		for(var i = 0; i < el.length; i++) {
			el[i].classList.remove("parent");
			el[i].classList.remove("hide");
			zoom_reset(el[i]);
			if(!dont_update_text) update_text(el[i]);
		}
		search();
	}
	function clearzoom() {
		unzoom();

		// remove zoom state
		var params = get_params();
		if (params.x) delete params.x;
		if (params.y) delete params.y;
		history.replaceState(null, null, parse_params(params));
	}

	// search
	function toggle_ignorecase() {
		ignorecase = !ignorecase;
		if (ignorecase) {
			ignorecaseBtn.classList.add("show");
		} else {
			ignorecaseBtn.classList.remove("show");
		}
		reset_search();
		search();
	}
	function reset_search() {
		var el = document.querySelectorAll("#frames rect");
		for (var i = 0; i < el.length; i++) {
			orig_load(el[i], "fill")
		}
		var params = get_params();
		delete params.s;
		history.replaceState(null, null, parse_params(params));
	}
	function search_prompt() {
		if (!searching) {
			var term = prompt("Enter a search term (regexp " +
			    "allowed, eg: ^ext4_)"
			    + (ignorecase ? ", ignoring case" : "")
			    + "\nPress Ctrl-i to toggle case sensitivity", "");
			if (term != null) search(term);
		} else {
			reset_search();
			searching = 0;
			currentSearchTerm = null;
			searchbtn.classList.remove("show");
			searchbtn.firstChild.nodeValue = "Search"
			matchedtxt.classList.add("hide");
			matchedtxt.firstChild.nodeValue = ""
		}
	}
	function search(term) {
		if (term) currentSearchTerm = term;
		if (currentSearchTerm === null) return;

		var re = new RegExp(currentSearchTerm, ignorecase ? 'i' : '');
		var el = document.getElementById("frames").children;
		var matches = new Object();
		var maxwidth = 0;
		for (var i = 0; i < el.length; i++) {
			var e = el[i];
			var func = g_to_func(e);
			var rect = find_child(e, "rect");
			if (func == null || rect == null)
				continue;

			// Save max width. Only works as we have a root frame
			var w = parseFloat(rect.attributes.width.value);
			if (w > maxwidth)
				maxwidth = w;

			if (func.match(re)) {
				// highlight
				var x = parseFloat(rect.attributes.x.value);
				orig_save(rect, "fill");
				rect.attributes.fill.value = "rgb(230,0,230)";

				// remember matches
				if (matches[x] == undefined) {
					matches[x] = w;
				} else {
					if (w > matches[x]) {
						// overwrite with parent
						matches[x] = w;
					}
				}
				searching = 1;
			}
		}
		if (!searching)
			return;
		var params = get_params();
		params.s = currentSearchTerm;
		history.replaceState(null, null, parse_params(params));

		searchbtn.classList.add("show");
		searchbtn.firstChild.nodeValue = "Reset Search";

		// calculate percent matched, excluding vertical overlap
		var count = 0;
		var lastx = -1;
		var lastw = 0;
		var keys = Array();
		for (k in matches) {
			if (matches.hasOwnProperty(k))
				keys.push(k);
		}
		// sort the matched frames by their x location
		// ascending, then width descending
		keys.sort(function(a, b){
			return a - b;
		});
		// Step through frames saving only the biggest bottom-up frames
		// thanks to the sort order. This relies on the tree property
		// where children are always smaller than their parents.
		var fudge = 0.0001;	// JavaScript floating point
		for (var k in keys) {
			var x = parseFloat(keys[k]);
			var w = matches[keys[k]];
			if (x >= lastx + lastw - fudge) {
				count += w;
				lastx = x;
				lastw = w;
			}
		}
		// display matched percent
		matchedtxt.classList.remove("hide");
		var pct = 100 * count / maxwidth;
		if (pct != 100) pct = pct.toFixed(1)
		matchedtxt.firstChild.nodeValue = "Matched: " + pct + "%";
	}
]]>
</script>
<rect x="0.0" y="0" width="1200.0" height="470.0" fill="url(#background)"  />
<text id="title" x="600.00" y="24" >Blent idle-steady host CPU samples</text>
<text id="details" x="10.00" y="453" > </text>
<text id="unzoom" x="10.00" y="24" class="hide">Reset Zoom</text>
<text id="search" x="1090.00" y="24" >Search</text>
<text id="ignorecase" x="1174.00" y="24" >ic</text>
<text id="matched" x="1090.00" y="453" > </text>
<g id="frames">
<g >
<title>kernel_init_pages (5,025,125 sampled CPU ns, 0.92%)</title><rect x="486.3" y="181" width="10.9" height="15.0" fill="rgb(224,89,21)" rx="2" ry="2" />
<text  x="489.33" y="191.5" ></text>
</g>
<g >
<title>do_syscall_64 (35,175,875 sampled CPU ns, 6.42%)</title><rect x="42.5" y="373" width="75.8" height="15.0" fill="rgb(215,50,12)" rx="2" ry="2" />
<text  x="45.48" y="383.5" >do_sysca..</text>
</g>
<g >
<title>get_page_from_freelist (15,075,375 sampled CPU ns, 2.75%)</title><rect x="486.3" y="213" width="32.5" height="15.0" fill="rgb(208,18,4)" rx="2" ry="2" />
<text  x="489.33" y="223.5" >ge..</text>
</g>
<g >
<title>init_file (5,025,125 sampled CPU ns, 0.92%)</title><rect x="453.9" y="261" width="10.8" height="15.0" fill="rgb(252,218,52)" rx="2" ry="2" />
<text  x="456.85" y="271.5" ></text>
</g>
<g >
<title>all (547,738,625 sampled CPU ns, 100%)</title><rect x="10.0" y="421" width="1180.0" height="15.0" fill="rgb(213,39,9)" rx="2" ry="2" />
<text  x="13.00" y="431.5" ></text>
</g>
<g >
<title>evdi_grab_pixels (110,552,750 sampled CPU ns, 20.18%)</title><rect x="194.0" y="245" width="238.2" height="15.0" fill="rgb(215,49,11)" rx="2" ry="2" />
<text  x="197.04" y="255.5" >evdi_grab_pixels</text>
</g>
<g >
<title>__x64_sys_read (35,175,875 sampled CPU ns, 6.42%)</title><rect x="42.5" y="341" width="75.8" height="15.0" fill="rgb(226,98,23)" rx="2" ry="2" />
<text  x="45.48" y="351.5" >__x64_sy..</text>
</g>
<g >
<title>copy_page_from_iter (10,050,250 sampled CPU ns, 1.83%)</title><rect x="518.8" y="261" width="21.7" height="15.0" fill="rgb(216,51,12)" rx="2" ry="2" />
<text  x="521.81" y="271.5" >c..</text>
</g>
<g >
<title>std::sys::process::unix::unix::&lt;impl std::sys::process::unix::common::Command&gt;::spawn (5,025,125 sampled CPU ns, 0.92%)</title><rect x="1168.3" y="341" width="10.9" height="15.0" fill="rgb(235,142,33)" rx="2" ry="2" />
<text  x="1171.35" y="351.5" ></text>
</g>
<g >
<title>__alloc_frozen_pages_noprof (25,125,625 sampled CPU ns, 4.59%)</title><rect x="464.7" y="229" width="54.1" height="15.0" fill="rgb(235,138,33)" rx="2" ry="2" />
<text  x="467.68" y="239.5" >__all..</text>
</g>
<g >
<title>__libc_start_main@@GLIBC_2.34 (125,628,125 sampled CPU ns, 22.94%)</title><rect x="183.2" y="373" width="270.7" height="15.0" fill="rgb(229,113,27)" rx="2" ry="2" />
<text  x="186.21" y="383.5" >__libc_start_main@@GLIBC_2.34</text>
</g>
<g >
<title>conv_pool_convert (10,050,250 sampled CPU ns, 1.83%)</title><rect x="432.2" y="229" width="21.7" height="15.0" fill="rgb(233,132,31)" rx="2" ry="2" />
<text  x="435.20" y="239.5" >c..</text>
</g>
<g >
<title>entry_SYSCALL_64_after_hwframe (110,552,750 sampled CPU ns, 20.18%)</title><rect x="194.0" y="181" width="238.2" height="15.0" fill="rgb(225,93,22)" rx="2" ry="2" />
<text  x="197.04" y="191.5" >entry_SYSCALL_64_after_hwframe</text>
</g>
<g >
<title>do_file_open (5,025,125 sampled CPU ns, 0.92%)</title><rect x="453.9" y="309" width="10.8" height="15.0" fill="rgb(238,155,37)" rx="2" ry="2" />
<text  x="456.85" y="319.5" ></text>
</g>
<g >
<title>__errno_location (5,025,125 sampled CPU ns, 0.92%)</title><rect x="118.3" y="373" width="10.8" height="15.0" fill="rgb(233,130,31)" rx="2" ry="2" />
<text  x="121.26" y="383.5" ></text>
</g>
<g >
<title>anon_pipe_buf_release (10,050,250 sampled CPU ns, 1.83%)</title><rect x="53.3" y="261" width="21.7" height="15.0" fill="rgb(227,104,24)" rx="2" ry="2" />
<text  x="56.30" y="271.5" >a..</text>
</g>
<g >
<title>pthread_mutex_lock@@GLIBC_2.2.5 (5,025,125 sampled CPU ns, 0.92%)</title><rect x="865.2" y="373" width="10.9" height="15.0" fill="rgb(244,179,42)" rx="2" ry="2" />
<text  x="868.23" y="383.5" ></text>
</g>
<g >
<title>clone3 (20,100,500 sampled CPU ns, 3.67%)</title><rect x="1081.7" y="389" width="43.3" height="15.0" fill="rgb(216,54,12)" rx="2" ry="2" />
<text  x="1084.74" y="399.5" >clone3</text>
</g>
<g >
<title>capture_run (125,628,125 sampled CPU ns, 22.94%)</title><rect x="183.2" y="325" width="270.7" height="15.0" fill="rgb(213,38,9)" rx="2" ry="2" />
<text  x="186.21" y="335.5" >capture_run</text>
</g>
<g >
<title>__vm_munmap (5,025,125 sampled CPU ns, 0.92%)</title><rect x="1168.3" y="197" width="10.9" height="15.0" fill="rgb(237,150,36)" rx="2" ry="2" />
<text  x="1171.35" y="207.5" ></text>
</g>
<g >
<title>dmx0:rawvideo/505729 (40,201,000 sampled CPU ns, 7.34%)</title><rect x="31.7" y="405" width="86.6" height="15.0" fill="rgb(220,72,17)" rx="2" ry="2" />
<text  x="34.65" y="415.5" >dmx0:rawvi..</text>
</g>
<g >
<title>publish_frame (10,050,250 sampled CPU ns, 1.83%)</title><rect x="432.2" y="245" width="21.7" height="15.0" fill="rgb(218,61,14)" rx="2" ry="2" />
<text  x="435.20" y="255.5" >p..</text>
</g>
<g >
<title>[[unknown]: unresolved] (5,025,125 sampled CPU ns, 0.92%)</title><rect x="540.5" y="389" width="10.8" height="15.0" fill="rgb(216,54,12)" rx="2" ry="2" />
<text  x="543.46" y="399.5" ></text>
</g>
<g >
<title>do_ioctl (110,552,750 sampled CPU ns, 20.18%)</title><rect x="194.0" y="229" width="238.2" height="15.0" fill="rgb(254,229,54)" rx="2" ry="2" />
<text  x="197.04" y="239.5" >do_ioctl</text>
</g>
<g >
<title>fifo_pipe_write (35,175,875 sampled CPU ns, 6.42%)</title><rect x="464.7" y="293" width="75.8" height="15.0" fill="rgb(216,52,12)" rx="2" ry="2" />
<text  x="467.68" y="303.5" >fifo_pip..</text>
</g>
<g >
<title>tokio-rt-worker/290532 (10,050,250 sampled CPU ns, 1.83%)</title><rect x="1168.3" y="405" width="21.7" height="15.0" fill="rgb(241,167,40)" rx="2" ry="2" />
<text  x="1171.35" y="415.5" >t..</text>
</g>
<g >
<title>[adb: unresolved] (5,025,125 sampled CPU ns, 0.92%)</title><rect x="20.8" y="373" width="10.9" height="15.0" fill="rgb(214,42,10)" rx="2" ry="2" />
<text  x="23.83" y="383.5" ></text>
</g>
<g >
<title>&lt;tokio::process::Command as blent_config::commands::AsyncCommandExt&gt;::output_timeout::{{closure}} (5,025,125 sampled CPU ns, 0.92%)</title><rect x="1168.3" y="373" width="10.9" height="15.0" fill="rgb(207,9,2)" rx="2" ry="2" />
<text  x="1171.35" y="383.5" ></text>
</g>
<g >
<title>alloc_pages_noprof (25,125,625 sampled CPU ns, 4.59%)</title><rect x="464.7" y="261" width="54.1" height="15.0" fill="rgb(239,160,38)" rx="2" ry="2" />
<text  x="467.68" y="271.5" >alloc..</text>
</g>
<g >
<title>std::process::Command::spawn (5,025,125 sampled CPU ns, 0.92%)</title><rect x="1168.3" y="357" width="10.9" height="15.0" fill="rgb(208,18,4)" rx="2" ry="2" />
<text  x="1171.35" y="367.5" ></text>
</g>
<g >
<title>[libx264.so.164: unresolved] (130,653,250 sampled CPU ns, 23.85%)</title><rect x="551.3" y="373" width="281.5" height="15.0" fill="rgb(222,80,19)" rx="2" ry="2" />
<text  x="554.28" y="383.5" >[libx264.so.164: unresolved]</text>
</g>
<g >
<title>copy_page_to_iter (20,100,500 sampled CPU ns, 3.67%)</title><rect x="75.0" y="261" width="43.3" height="15.0" fill="rgb(216,52,12)" rx="2" ry="2" />
<text  x="77.95" y="271.5" >copy..</text>
</g>
<g >
<title>grab_now (120,603,000 sampled CPU ns, 22.02%)</title><rect x="194.0" y="261" width="259.9" height="15.0" fill="rgb(242,170,40)" rx="2" ry="2" />
<text  x="197.04" y="271.5" >grab_now</text>
</g>
<g >
<title>_copy_to_user (40,201,000 sampled CPU ns, 7.34%)</title><rect x="345.6" y="69" width="86.6" height="15.0" fill="rgb(213,38,9)" rx="2" ry="2" />
<text  x="348.60" y="79.5" >_copy_to_u..</text>
</g>
<g >
<title>x64_sys_call (110,552,750 sampled CPU ns, 20.18%)</title><rect x="194.0" y="149" width="238.2" height="15.0" fill="rgb(253,224,53)" rx="2" ry="2" />
<text  x="197.04" y="159.5" >x64_sys_call</text>
</g>
<g >
<title>__rmqueue_pcplist (5,025,125 sampled CPU ns, 0.92%)</title><rect x="508.0" y="181" width="10.8" height="15.0" fill="rgb(237,148,35)" rx="2" ry="2" />
<text  x="510.98" y="191.5" ></text>
</g>
<g >
<title>entry_SYSCALL_64_after_hwframe (5,025,125 sampled CPU ns, 0.92%)</title><rect x="1168.3" y="261" width="10.9" height="15.0" fill="rgb(225,93,22)" rx="2" ry="2" />
<text  x="1171.35" y="271.5" ></text>
</g>
<g >
<title>security_file_alloc (5,025,125 sampled CPU ns, 0.92%)</title><rect x="453.9" y="245" width="10.8" height="15.0" fill="rgb(240,163,38)" rx="2" ry="2" />
<text  x="456.85" y="255.5" ></text>
</g>
<g >
<title>drm_ioctl (110,552,750 sampled CPU ns, 20.18%)</title><rect x="194.0" y="117" width="238.2" height="15.0" fill="rgb(237,151,36)" rx="2" ry="2" />
<text  x="197.04" y="127.5" >drm_ioctl</text>
</g>
<g >
<title>vfs_read (35,175,875 sampled CPU ns, 6.42%)</title><rect x="42.5" y="309" width="75.8" height="15.0" fill="rgb(230,118,28)" rx="2" ry="2" />
<text  x="45.48" y="319.5" >vfs_read</text>
</g>
<g >
<title>[libx264.so.164: unresolved] (20,100,500 sampled CPU ns, 3.67%)</title><rect x="1081.7" y="309" width="43.3" height="15.0" fill="rgb(222,80,19)" rx="2" ry="2" />
<text  x="1084.74" y="319.5" >[lib..</text>
</g>
<g >
<title>zap_pmd_range.isra.0 (5,025,125 sampled CPU ns, 0.92%)</title><rect x="1168.3" y="69" width="10.9" height="15.0" fill="rgb(250,210,50)" rx="2" ry="2" />
<text  x="1171.35" y="79.5" ></text>
</g>
<g >
<title>_copy_from_iter (5,025,125 sampled CPU ns, 0.92%)</title><rect x="529.6" y="245" width="10.9" height="15.0" fill="rgb(234,134,32)" rx="2" ry="2" />
<text  x="532.63" y="255.5" ></text>
</g>
<g >
<title>do_syscall_64 (15,075,375 sampled CPU ns, 2.75%)</title><rect x="1125.0" y="373" width="32.5" height="15.0" fill="rgb(215,50,12)" rx="2" ry="2" />
<text  x="1128.05" y="383.5" >do..</text>
</g>
<g >
<title>entry_SYSCALL_64_after_hwframe (15,075,375 sampled CPU ns, 2.75%)</title><rect x="1125.0" y="389" width="32.5" height="15.0" fill="rgb(225,93,22)" rx="2" ry="2" />
<text  x="1128.05" y="399.5" >en..</text>
</g>
<g >
<title>do_syscall_64 (40,201,000 sampled CPU ns, 7.34%)</title><rect x="453.9" y="373" width="86.6" height="15.0" fill="rgb(215,50,12)" rx="2" ry="2" />
<text  x="456.85" y="383.5" >do_syscall..</text>
</g>
<g >
<title>do_syscall_64 (5,025,125 sampled CPU ns, 0.92%)</title><rect x="1168.3" y="245" width="10.9" height="15.0" fill="rgb(215,50,12)" rx="2" ry="2" />
<text  x="1171.35" y="255.5" ></text>
</g>
<g >
<title>mod_memcg_state (5,025,125 sampled CPU ns, 0.92%)</title><rect x="475.5" y="181" width="10.8" height="15.0" fill="rgb(239,157,37)" rx="2" ry="2" />
<text  x="478.50" y="191.5" ></text>
</g>
<g >
<title>try_to_wake_up (10,050,250 sampled CPU ns, 1.83%)</title><rect x="1135.9" y="277" width="21.6" height="15.0" fill="rgb(226,100,24)" rx="2" ry="2" />
<text  x="1138.87" y="287.5" >t..</text>
</g>
<g >
<title>[[unknown]: unresolved] (5,025,125 sampled CPU ns, 0.92%)</title><rect x="1168.3" y="389" width="10.9" height="15.0" fill="rgb(216,54,12)" rx="2" ry="2" />
<text  x="1171.35" y="399.5" ></text>
</g>
<g >
<title>[callchain unavailable] (30,150,750 sampled CPU ns, 5.50%)</title><rect x="118.3" y="389" width="64.9" height="15.0" fill="rgb(212,33,7)" rx="2" ry="2" />
<text  x="121.26" y="399.5" >[callch..</text>
</g>
<g >
<title>__folio_put (5,025,125 sampled CPU ns, 0.92%)</title><rect x="64.1" y="245" width="10.9" height="15.0" fill="rgb(231,121,28)" rx="2" ry="2" />
<text  x="67.13" y="255.5" ></text>
</g>
<g >
<title>__mem_cgroup_uncharge (5,025,125 sampled CPU ns, 0.92%)</title><rect x="64.1" y="229" width="10.9" height="15.0" fill="rgb(208,15,3)" rx="2" ry="2" />
<text  x="67.13" y="239.5" ></text>
</g>
<g >
<title>evdi_painter_grabpix_ioctl [evdi] (80,402,000 sampled CPU ns, 14.68%)</title><rect x="259.0" y="85" width="173.2" height="15.0" fill="rgb(208,14,3)" rx="2" ry="2" />
<text  x="261.99" y="95.5" >evdi_painter_grabpix_i..</text>
</g>
<g >
<title>posix_spawnp@@GLIBC_2.15 (5,025,125 sampled CPU ns, 0.92%)</title><rect x="1168.3" y="325" width="10.9" height="15.0" fill="rgb(217,55,13)" rx="2" ry="2" />
<text  x="1171.35" y="335.5" ></text>
</g>
<g >
<title>start_thread (20,100,500 sampled CPU ns, 3.67%)</title><rect x="1081.7" y="373" width="43.3" height="15.0" fill="rgb(212,34,8)" rx="2" ry="2" />
<text  x="1084.74" y="383.5" >star..</text>
</g>
<g >
<title>[callchain unavailable] (246,231,125 sampled CPU ns, 44.95%)</title><rect x="551.3" y="389" width="530.4" height="15.0" fill="rgb(212,33,7)" rx="2" ry="2" />
<text  x="554.28" y="399.5" >[callchain unavailable]</text>
</g>
<g >
<title>unmap_single_vma (5,025,125 sampled CPU ns, 0.92%)</title><rect x="1168.3" y="101" width="10.9" height="15.0" fill="rgb(231,123,29)" rx="2" ry="2" />
<text  x="1171.35" y="111.5" ></text>
</g>
<g >
<title>unmap_vmas (5,025,125 sampled CPU ns, 0.92%)</title><rect x="1168.3" y="117" width="10.9" height="15.0" fill="rgb(249,206,49)" rx="2" ry="2" />
<text  x="1171.35" y="127.5" ></text>
</g>
<g >
<title>_start (125,628,125 sampled CPU ns, 22.94%)</title><rect x="183.2" y="389" width="270.7" height="15.0" fill="rgb(245,185,44)" rx="2" ry="2" />
<text  x="186.21" y="399.5" >_start</text>
</g>
<g >
<title>drm_ioctl (110,552,750 sampled CPU ns, 20.18%)</title><rect x="194.0" y="213" width="238.2" height="15.0" fill="rgb(231,121,29)" rx="2" ry="2" />
<text  x="197.04" y="223.5" >drm_ioctl</text>
</g>
<g >
<title>do_vmi_align_munmap (5,025,125 sampled CPU ns, 0.92%)</title><rect x="1168.3" y="165" width="10.9" height="15.0" fill="rgb(217,59,14)" rx="2" ry="2" />
<text  x="1171.35" y="175.5" ></text>
</g>
<g >
<title>futex_wake (10,050,250 sampled CPU ns, 1.83%)</title><rect x="1135.9" y="309" width="21.6" height="15.0" fill="rgb(225,94,22)" rx="2" ry="2" />
<text  x="1138.87" y="319.5" >f..</text>
</g>
<g >
<title>check_heap_object (40,201,000 sampled CPU ns, 7.34%)</title><rect x="259.0" y="53" width="86.6" height="15.0" fill="rgb(247,195,46)" rx="2" ry="2" />
<text  x="261.99" y="63.5" >check_heap..</text>
</g>
<g >
<title>__x64_sys_ioctl (110,552,750 sampled CPU ns, 20.18%)</title><rect x="194.0" y="133" width="238.2" height="15.0" fill="rgb(206,4,1)" rx="2" ry="2" />
<text  x="197.04" y="143.5" >__x64_sys_ioctl</text>
</g>
<g >
<title>__spawnix (5,025,125 sampled CPU ns, 0.92%)</title><rect x="1168.3" y="293" width="10.9" height="15.0" fill="rgb(210,24,5)" rx="2" ry="2" />
<text  x="1171.35" y="303.5" ></text>
</g>
<g >
<title>__GI___ioctl (110,552,750 sampled CPU ns, 20.18%)</title><rect x="194.0" y="197" width="238.2" height="15.0" fill="rgb(232,128,30)" rx="2" ry="2" />
<text  x="197.04" y="207.5" >__GI___ioctl</text>
</g>
<g >
<title>x64_sys_call (35,175,875 sampled CPU ns, 6.42%)</title><rect x="42.5" y="357" width="75.8" height="15.0" fill="rgb(253,224,53)" rx="2" ry="2" />
<text  x="45.48" y="367.5" >x64_sys_..</text>
</g>
<g >
<title>ffmpeg/505729 (291,457,250 sampled CPU ns, 53.21%)</title><rect x="540.5" y="405" width="627.8" height="15.0" fill="rgb(205,1,0)" rx="2" ry="2" />
<text  x="543.46" y="415.5" >ffmpeg/505729</text>
</g>
<g >
<title>post_alloc_hook (5,025,125 sampled CPU ns, 0.92%)</title><rect x="486.3" y="197" width="10.9" height="15.0" fill="rgb(234,134,32)" rx="2" ry="2" />
<text  x="489.33" y="207.5" ></text>
</g>
<g >
<title>anon_pipe_write (35,175,875 sampled CPU ns, 6.42%)</title><rect x="464.7" y="277" width="75.8" height="15.0" fill="rgb(214,45,10)" rx="2" ry="2" />
<text  x="467.68" y="287.5" >anon_pip..</text>
</g>
<g >
<title>unmap_page_range (5,025,125 sampled CPU ns, 0.92%)</title><rect x="1168.3" y="85" width="10.9" height="15.0" fill="rgb(212,35,8)" rx="2" ry="2" />
<text  x="1171.35" y="95.5" ></text>
</g>
<g >
<title>drm_clflush_virt_range (30,150,750 sampled CPU ns, 5.50%)</title><rect x="194.0" y="85" width="65.0" height="15.0" fill="rgb(210,24,5)" rx="2" ry="2" />
<text  x="197.04" y="95.5" >drm_clf..</text>
</g>
<g >
<title>__memcg_kmem_charge_page (10,050,250 sampled CPU ns, 1.83%)</title><rect x="464.7" y="213" width="21.6" height="15.0" fill="rgb(223,87,20)" rx="2" ry="2" />
<text  x="467.68" y="223.5" >_..</text>
</g>
<g >
<title>anon_pipe_buf_release (5,025,125 sampled CPU ns, 0.92%)</title><rect x="42.5" y="277" width="10.8" height="15.0" fill="rgb(227,104,24)" rx="2" ry="2" />
<text  x="45.48" y="287.5" ></text>
</g>
<g >
<title>__check_object_size (40,201,000 sampled CPU ns, 7.34%)</title><rect x="259.0" y="69" width="86.6" height="15.0" fill="rgb(232,127,30)" rx="2" ry="2" />
<text  x="261.99" y="79.5" >__check_ob..</text>
</g>
<g >
<title>path_openat (5,025,125 sampled CPU ns, 0.92%)</title><rect x="453.9" y="293" width="10.8" height="15.0" fill="rgb(205,2,0)" rx="2" ry="2" />
<text  x="456.85" y="303.5" ></text>
</g>
<g >
<title>[callchain unavailable] (5,025,125 sampled CPU ns, 0.92%)</title><rect x="31.7" y="389" width="10.8" height="15.0" fill="rgb(212,33,7)" rx="2" ry="2" />
<text  x="34.65" y="399.5" ></text>
</g>
<g >
<title>on_update_ready (120,603,000 sampled CPU ns, 22.02%)</title><rect x="194.0" y="277" width="259.9" height="15.0" fill="rgb(211,30,7)" rx="2" ry="2" />
<text  x="197.04" y="287.5" >on_update_ready</text>
</g>
<g >
<title>zap_pte_range (5,025,125 sampled CPU ns, 0.92%)</title><rect x="1168.3" y="53" width="10.9" height="15.0" fill="rgb(237,150,35)" rx="2" ry="2" />
<text  x="1171.35" y="63.5" ></text>
</g>
<g >
<title>wake_up_q (10,050,250 sampled CPU ns, 1.83%)</title><rect x="1135.9" y="293" width="21.6" height="15.0" fill="rgb(244,181,43)" rx="2" ry="2" />
<text  x="1138.87" y="303.5" >w..</text>
</g>
<g >
<title>x264_8_trellis_coefn (5,025,125 sampled CPU ns, 0.92%)</title><rect x="1157.5" y="389" width="10.8" height="15.0" fill="rgb(244,181,43)" rx="2" ry="2" />
<text  x="1160.52" y="399.5" ></text>
</g>
<g >
<title>find_vmap_area (40,201,000 sampled CPU ns, 7.34%)</title><rect x="259.0" y="37" width="86.6" height="15.0" fill="rgb(240,162,38)" rx="2" ry="2" />
<text  x="261.99" y="47.5" >find_vmap_..</text>
</g>
<g >
<title>[callchain unavailable] (5,025,125 sampled CPU ns, 0.92%)</title><rect x="20.8" y="389" width="10.9" height="15.0" fill="rgb(212,33,7)" rx="2" ry="2" />
<text  x="23.83" y="399.5" ></text>
</g>
<g >
<title>__x64_sys_write (35,175,875 sampled CPU ns, 6.42%)</title><rect x="464.7" y="341" width="75.8" height="15.0" fill="rgb(252,219,52)" rx="2" ry="2" />
<text  x="467.68" y="351.5" >__x64_sy..</text>
</g>
<g >
<title>[libx264.so.164: unresolved] (20,100,500 sampled CPU ns, 3.67%)</title><rect x="1081.7" y="357" width="43.3" height="15.0" fill="rgb(222,80,19)" rx="2" ry="2" />
<text  x="1084.74" y="367.5" >[lib..</text>
</g>
<g >
<title>__x64_sys_futex (15,075,375 sampled CPU ns, 2.75%)</title><rect x="1125.0" y="341" width="32.5" height="15.0" fill="rgb(246,189,45)" rx="2" ry="2" />
<text  x="1128.05" y="351.5" >__..</text>
</g>
<g >
<title>obj_cgroup_charge_pages (10,050,250 sampled CPU ns, 1.83%)</title><rect x="464.7" y="197" width="21.6" height="15.0" fill="rgb(253,222,53)" rx="2" ry="2" />
<text  x="467.68" y="207.5" >o..</text>
</g>
<g >
<title>_copy_to_iter (20,100,500 sampled CPU ns, 3.67%)</title><rect x="75.0" y="245" width="43.3" height="15.0" fill="rgb(234,134,32)" rx="2" ry="2" />
<text  x="77.95" y="255.5" >_cop..</text>
</g>
<g >
<title>__libc_start_call_main (125,628,125 sampled CPU ns, 22.94%)</title><rect x="183.2" y="357" width="270.7" height="15.0" fill="rgb(210,26,6)" rx="2" ry="2" />
<text  x="186.21" y="367.5" >__libc_start_call_main</text>
</g>
<g >
<title>do_sys_openat2 (5,025,125 sampled CPU ns, 0.92%)</title><rect x="453.9" y="325" width="10.8" height="15.0" fill="rgb(209,21,5)" rx="2" ry="2" />
<text  x="456.85" y="335.5" ></text>
</g>
<g >
<title>evdi_handle_events (125,628,125 sampled CPU ns, 22.94%)</title><rect x="183.2" y="309" width="270.7" height="15.0" fill="rgb(222,78,18)" rx="2" ry="2" />
<text  x="186.21" y="319.5" >evdi_handle_events</text>
</g>
<g >
<title>memset (5,025,125 sampled CPU ns, 0.92%)</title><rect x="453.9" y="229" width="10.8" height="15.0" fill="rgb(214,44,10)" rx="2" ry="2" />
<text  x="456.85" y="239.5" ></text>
</g>
<g >
<title>do_syscall_64 (110,552,750 sampled CPU ns, 20.18%)</title><rect x="194.0" y="165" width="238.2" height="15.0" fill="rgb(215,50,12)" rx="2" ry="2" />
<text  x="197.04" y="175.5" >do_syscall_64</text>
</g>
<g >
<title>evdi_helper/290619 (195,979,875 sampled CPU ns, 35.78%)</title><rect x="118.3" y="405" width="422.2" height="15.0" fill="rgb(238,152,36)" rx="2" ry="2" />
<text  x="121.26" y="415.5" >evdi_helper/290619</text>
</g>
<g >
<title>x64_sys_call (5,025,125 sampled CPU ns, 0.92%)</title><rect x="1168.3" y="229" width="10.9" height="15.0" fill="rgb(253,224,53)" rx="2" ry="2" />
<text  x="1171.35" y="239.5" ></text>
</g>
<g >
<title>fifo_pipe_read (35,175,875 sampled CPU ns, 6.42%)</title><rect x="42.5" y="293" width="75.8" height="15.0" fill="rgb(240,162,38)" rx="2" ry="2" />
<text  x="45.48" y="303.5" >fifo_pip..</text>
</g>
<g >
<title>__memmove_avx512_unaligned_erms (15,075,375 sampled CPU ns, 2.75%)</title><rect x="832.8" y="373" width="32.4" height="15.0" fill="rgb(223,84,20)" rx="2" ry="2" />
<text  x="835.75" y="383.5" >__..</text>
</g>
<g >
<title>x64_sys_call (40,201,000 sampled CPU ns, 7.34%)</title><rect x="453.9" y="357" width="86.6" height="15.0" fill="rgb(253,224,53)" rx="2" ry="2" />
<text  x="456.85" y="367.5" >x64_sys_call</text>
</g>
<g >
<title>do_vmi_munmap (5,025,125 sampled CPU ns, 0.92%)</title><rect x="1168.3" y="181" width="10.9" height="15.0" fill="rgb(210,23,5)" rx="2" ry="2" />
<text  x="1171.35" y="191.5" ></text>
</g>
<g >
<title>drm_ioctl_kernel (110,552,750 sampled CPU ns, 20.18%)</title><rect x="194.0" y="101" width="238.2" height="15.0" fill="rgb(233,130,31)" rx="2" ry="2" />
<text  x="197.04" y="111.5" >drm_ioctl_kernel</text>
</g>
<g >
<title>adb/290576 (10,050,250 sampled CPU ns, 1.83%)</title><rect x="10.0" y="405" width="21.7" height="15.0" fill="rgb(206,6,1)" rx="2" ry="2" />
<text  x="13.00" y="415.5" >a..</text>
</g>
<g >
<title>futex_wait (5,025,125 sampled CPU ns, 0.92%)</title><rect x="1125.0" y="309" width="10.9" height="15.0" fill="rgb(241,168,40)" rx="2" ry="2" />
<text  x="1128.05" y="319.5" ></text>
</g>
<g >
<title>rmqueue.isra.0 (10,050,250 sampled CPU ns, 1.83%)</title><rect x="497.2" y="197" width="21.6" height="15.0" fill="rgb(244,181,43)" rx="2" ry="2" />
<text  x="500.16" y="207.5" >r..</text>
</g>
<g >
<title>uncharge_folio (5,025,125 sampled CPU ns, 0.92%)</title><rect x="64.1" y="213" width="10.9" height="15.0" fill="rgb(228,109,26)" rx="2" ry="2" />
<text  x="67.13" y="223.5" ></text>
</g>
<g >
<title>entry_SYSCALL_64_after_hwframe (35,175,875 sampled CPU ns, 6.42%)</title><rect x="42.5" y="389" width="75.8" height="15.0" fill="rgb(225,93,22)" rx="2" ry="2" />
<text  x="45.48" y="399.5" >entry_SY..</text>
</g>
<g >
<title>alloc_pages_mpol (25,125,625 sampled CPU ns, 4.59%)</title><rect x="464.7" y="245" width="54.1" height="15.0" fill="rgb(210,27,6)" rx="2" ry="2" />
<text  x="467.68" y="255.5" >alloc..</text>
</g>
<g >
<title>vfs_write (35,175,875 sampled CPU ns, 6.42%)</title><rect x="464.7" y="309" width="75.8" height="15.0" fill="rgb(207,9,2)" rx="2" ry="2" />
<text  x="467.68" y="319.5" >vfs_write</text>
</g>
<g >
<title>__x64_sys_munmap (5,025,125 sampled CPU ns, 0.92%)</title><rect x="1168.3" y="213" width="10.9" height="15.0" fill="rgb(213,37,8)" rx="2" ry="2" />
<text  x="1171.35" y="223.5" ></text>
</g>
<g >
<title>[callchain unavailable] (5,025,125 sampled CPU ns, 0.92%)</title><rect x="1179.2" y="389" width="10.8" height="15.0" fill="rgb(212,33,7)" rx="2" ry="2" />
<text  x="1182.17" y="399.5" ></text>
</g>
<g >
<title>anon_pipe_read (30,150,750 sampled CPU ns, 5.50%)</title><rect x="53.3" y="277" width="65.0" height="15.0" fill="rgb(238,154,36)" rx="2" ry="2" />
<text  x="56.30" y="287.5" >anon_pi..</text>
</g>
<g >
<title>alloc_empty_file (5,025,125 sampled CPU ns, 0.92%)</title><rect x="453.9" y="277" width="10.8" height="15.0" fill="rgb(215,49,11)" rx="2" ry="2" />
<text  x="456.85" y="287.5" ></text>
</g>
<g >
<title>evdi_handle_event (125,628,125 sampled CPU ns, 22.94%)</title><rect x="183.2" y="293" width="270.7" height="15.0" fill="rgb(214,45,10)" rx="2" ry="2" />
<text  x="186.21" y="303.5" >evdi_handle_event</text>
</g>
<g >
<title>[libx264.so.164: unresolved] (20,100,500 sampled CPU ns, 3.67%)</title><rect x="1081.7" y="341" width="43.3" height="15.0" fill="rgb(222,80,19)" rx="2" ry="2" />
<text  x="1084.74" y="351.5" >[lib..</text>
</g>
<g >
<title>__spawni (5,025,125 sampled CPU ns, 0.92%)</title><rect x="1168.3" y="309" width="10.9" height="15.0" fill="rgb(235,140,33)" rx="2" ry="2" />
<text  x="1171.35" y="319.5" ></text>
</g>
<g >
<title>ksys_read (35,175,875 sampled CPU ns, 6.42%)</title><rect x="42.5" y="325" width="75.8" height="15.0" fill="rgb(236,143,34)" rx="2" ry="2" />
<text  x="45.48" y="335.5" >ksys_read</text>
</g>
<g >
<title>main (125,628,125 sampled CPU ns, 22.94%)</title><rect x="183.2" y="341" width="270.7" height="15.0" fill="rgb(243,179,42)" rx="2" ry="2" />
<text  x="186.21" y="351.5" >main</text>
</g>
<g >
<title>ksys_write (35,175,875 sampled CPU ns, 6.42%)</title><rect x="464.7" y="325" width="75.8" height="15.0" fill="rgb(212,34,8)" rx="2" ry="2" />
<text  x="467.68" y="335.5" >ksys_write</text>
</g>
<g >
<title>_raw_spin_unlock_irqrestore (10,050,250 sampled CPU ns, 1.83%)</title><rect x="1135.9" y="261" width="21.6" height="15.0" fill="rgb(234,136,32)" rx="2" ry="2" />
<text  x="1138.87" y="271.5" >_..</text>
</g>
<g >
<title>__x64_sys_openat (5,025,125 sampled CPU ns, 0.92%)</title><rect x="453.9" y="341" width="10.8" height="15.0" fill="rgb(208,15,3)" rx="2" ry="2" />
<text  x="456.85" y="351.5" ></text>
</g>
<g >
<title>__munmap (5,025,125 sampled CPU ns, 0.92%)</title><rect x="1168.3" y="277" width="10.9" height="15.0" fill="rgb(211,29,7)" rx="2" ry="2" />
<text  x="1171.35" y="287.5" ></text>
</g>
<g >
<title>unmap_region (5,025,125 sampled CPU ns, 0.92%)</title><rect x="1168.3" y="133" width="10.9" height="15.0" fill="rgb(225,94,22)" rx="2" ry="2" />
<text  x="1171.35" y="143.5" ></text>
</g>
<g >
<title>read (5,025,125 sampled CPU ns, 0.92%)</title><rect x="31.7" y="373" width="10.8" height="15.0" fill="rgb(252,216,51)" rx="2" ry="2" />
<text  x="34.65" y="383.5" ></text>
</g>
<g >
<title>[[unknown]: unresolved] (5,025,125 sampled CPU ns, 0.92%)</title><rect x="10.0" y="389" width="10.8" height="15.0" fill="rgb(216,54,12)" rx="2" ry="2" />
<text  x="13.00" y="399.5" ></text>
</g>
<g >
<title>x264_8_trellis_coefn (5,025,125 sampled CPU ns, 0.92%)</title><rect x="540.5" y="373" width="10.8" height="15.0" fill="rgb(244,181,43)" rx="2" ry="2" />
<text  x="543.46" y="383.5" ></text>
</g>
<g >
<title>entry_SYSCALL_64_after_hwframe (40,201,000 sampled CPU ns, 7.34%)</title><rect x="453.9" y="389" width="86.6" height="15.0" fill="rgb(225,93,22)" rx="2" ry="2" />
<text  x="456.85" y="399.5" >entry_SYSC..</text>
</g>
<g >
<title>x64_sys_call (15,075,375 sampled CPU ns, 2.75%)</title><rect x="1125.0" y="357" width="32.5" height="15.0" fill="rgb(253,224,53)" rx="2" ry="2" />
<text  x="1128.05" y="367.5" >x6..</text>
</g>
<g >
<title>std::time::Instant::now (5,025,125 sampled CPU ns, 0.92%)</title><rect x="1179.2" y="373" width="10.8" height="15.0" fill="rgb(235,141,33)" rx="2" ry="2" />
<text  x="1182.17" y="383.5" ></text>
</g>
<g >
<title>android::base::ShouldLog(android::base::LogSeverity, char const*) (5,025,125 sampled CPU ns, 0.92%)</title><rect x="10.0" y="373" width="10.8" height="15.0" fill="rgb(237,151,36)" rx="2" ry="2" />
<text  x="13.00" y="383.5" ></text>
</g>
<g >
<title>vms_complete_munmap_vmas (5,025,125 sampled CPU ns, 0.92%)</title><rect x="1168.3" y="149" width="10.9" height="15.0" fill="rgb(222,82,19)" rx="2" ry="2" />
<text  x="1171.35" y="159.5" ></text>
</g>
<g >
<title>convert_job (25,125,625 sampled CPU ns, 4.59%)</title><rect x="129.1" y="373" width="54.1" height="15.0" fill="rgb(247,194,46)" rx="2" ry="2" />
<text  x="132.08" y="383.5" >conve..</text>
</g>
<g >
<title>do_futex (15,075,375 sampled CPU ns, 2.75%)</title><rect x="1125.0" y="325" width="32.5" height="15.0" fill="rgb(251,214,51)" rx="2" ry="2" />
<text  x="1128.05" y="335.5" >do..</text>
</g>
<g >
<title>convert_job (10,050,250 sampled CPU ns, 1.83%)</title><rect x="432.2" y="213" width="21.7" height="15.0" fill="rgb(247,194,46)" rx="2" ry="2" />
<text  x="435.20" y="223.5" >c..</text>
</g>
<g >
<title>[libx264.so.164: unresolved] (20,100,500 sampled CPU ns, 3.67%)</title><rect x="1081.7" y="325" width="43.3" height="15.0" fill="rgb(222,80,19)" rx="2" ry="2" />
<text  x="1084.74" y="335.5" >[lib..</text>
</g>
<g >
<title>x264_8_trellis_coefn (95,477,375 sampled CPU ns, 17.43%)</title><rect x="876.1" y="373" width="205.6" height="15.0" fill="rgb(244,181,43)" rx="2" ry="2" />
<text  x="879.06" y="383.5" >x264_8_trellis_coefn</text>
</g>
</g>
</svg>
